# xmcd CD database file
#
# Track frame offsets:
#	150
#	11392
#	29143
#	47396
#	66122
#	87453
#	105242
#	128210
#	145365
#	163659
#	189032
#	202076
#
# Disc length: 2850 seconds
#
# Revision: 0
# Processed by: cddbd v1.5PL3 Copyright (c) Steve Scherf et al.
# Submitted via: CDex 1.51
#
DISCID=9e0b200c
DTITLE=reimer@setzer - Between the worlds
DYEAR=2001
DGENRE=Jazz
TTITLE0=Welcome to our world
TTITLE1=For earth and stars
TTITLE2=The first twinkle
TTITLE3=My celtic heart
TTITLE4=The dance
TTITLE5=Dear Mr. P.
TTITLE6=Little Wing
TTITLE7=Between our eyes
TTITLE8=One couple - two heads
TTITLE9=Child of the sea
TTITLE10=My heart is dancing
TTITLE11=Lullaby for Jule
EXTD=YEAR: 2001
EXTT0=
EXTT1=
EXTT2=
EXTT3=
EXTT4=
EXTT5=
EXTT6=
EXTT7=
EXTT8=
EXTT9=
EXTT10=
EXTT11=
PLAYORDER=
